<svg width="1024" height="1024" viewBox="0 0 1024 1024" fill="none" xmlns="http://www.w3.org/2000/svg">
<rect width="1024" height="1024" fill="white"/>
<path d="M191.976 853L121.776 564.4H188.856L236.826 766.03L287.136 564.4H356.556L406.866 766.03L454.836 564.4H521.916L451.716 853H363.966L321.846 681.79L279.726 853H191.976ZM622.804 853V564.4H690.274V683.35L786.214 564.4H868.504L752.674 702.46L872.404 853H786.994L690.274 728.59V853H622.804Z" fill="#D0324F"/>
<path d="M324.171 461.9C300.251 461.9 279.191 457.74 260.991 449.42C242.791 440.84 227.581 429.53 215.361 415.49C203.401 401.19 194.301 385.2 188.061 367.52C182.081 349.84 179.091 331.77 179.091 313.31C179.091 295.11 182.081 277.17 188.061 259.49C194.301 241.81 203.401 225.95 215.361 211.91C227.581 197.87 242.791 186.69 260.991 178.37C279.191 169.79 300.251 165.5 324.171 165.5C344.711 165.5 362.131 168.1 376.431 173.3C390.991 178.24 403.081 184.87 412.701 193.19C422.581 201.25 430.381 209.83 436.101 218.93C442.081 227.77 446.501 236.22 449.361 244.28C452.221 252.34 454.041 258.97 454.821 264.17C455.861 269.37 456.381 271.97 456.381 271.97H389.691C389.691 271.97 388.911 269.63 387.351 264.95C386.051 260.27 383.191 254.94 378.771 248.96C374.611 242.72 368.241 237.26 359.661 232.58C351.081 227.9 339.511 225.56 324.951 225.56C308.051 225.56 293.881 229.85 282.441 238.43C271.261 247.01 262.811 258.06 257.091 271.58C251.631 284.84 248.901 298.75 248.901 313.31C248.901 327.87 251.631 341.91 257.091 355.43C262.811 368.95 271.261 380 282.441 388.58C293.881 397.16 308.051 401.45 324.951 401.45C339.511 401.45 351.081 399.11 359.661 394.43C368.241 389.75 374.611 384.42 378.771 378.44C383.191 372.46 386.051 367.13 387.351 362.45C388.911 357.77 389.691 355.43 389.691 355.43H456.381C456.381 355.43 455.861 358.03 454.821 363.23C454.041 368.17 452.221 374.8 449.361 383.12C446.501 391.18 442.081 399.76 436.101 408.86C430.381 417.7 422.581 426.28 412.701 434.6C403.081 442.66 390.991 449.29 376.431 454.49C362.131 459.43 344.711 461.9 324.171 461.9ZM623.972 458V169.4H738.242C761.902 169.4 782.702 173.56 800.642 181.88C818.582 189.94 833.402 200.86 845.102 214.64C857.062 228.42 866.032 243.89 872.012 261.05C877.992 278.21 880.982 295.76 880.982 313.7C880.982 331.64 877.992 349.19 872.012 366.35C866.032 383.51 857.062 398.98 845.102 412.76C833.402 426.54 818.582 437.59 800.642 445.91C782.702 453.97 761.902 458 738.242 458H623.972ZM735.122 228.68H691.442V397.94H735.122C753.062 397.94 767.752 393.78 779.192 385.46C790.892 377.14 799.472 366.61 804.932 353.87C810.392 340.87 813.122 327.22 813.122 312.92C813.122 299.14 810.392 285.75 804.932 272.75C799.472 259.75 790.892 249.22 779.192 241.16C767.752 232.84 753.062 228.68 735.122 228.68Z" fill="#28262B"/>
</svg>
