<svg width="1024" height="1024" viewBox="0 0 1024 1024" fill="none" xmlns="http://www.w3.org/2000/svg">
<path d="M269.236 902V671.9H181.486V613.4H424.846V671.9H337.096V902H269.236ZM593.213 902V613.4H660.683V725.33H764.423V613.4H831.893V902H764.423V783.05H660.683V902H593.213Z" fill="#FFAB40"/>
<path d="M306.171 412.9C282.251 412.9 261.191 408.74 242.991 400.42C224.791 391.84 209.581 380.53 197.361 366.49C185.401 352.19 176.301 336.2 170.061 318.52C164.081 300.84 161.091 282.77 161.091 264.31C161.091 246.11 164.081 228.17 170.061 210.49C176.301 192.81 185.401 176.95 197.361 162.91C209.581 148.87 224.791 137.69 242.991 129.37C261.191 120.79 282.251 116.5 306.171 116.5C326.711 116.5 344.131 119.1 358.431 124.3C372.991 129.24 385.081 135.87 394.701 144.19C404.581 152.25 412.381 160.83 418.101 169.93C424.081 178.77 428.501 187.22 431.361 195.28C434.221 203.34 436.041 209.97 436.821 215.17C437.861 220.37 438.381 222.97 438.381 222.97H371.691C371.691 222.97 370.911 220.63 369.351 215.95C368.051 211.27 365.191 205.94 360.771 199.96C356.611 193.72 350.241 188.26 341.661 183.58C333.081 178.9 321.511 176.56 306.951 176.56C290.051 176.56 275.881 180.85 264.441 189.43C253.261 198.01 244.811 209.06 239.091 222.58C233.631 235.84 230.901 249.75 230.901 264.31C230.901 278.87 233.631 292.91 239.091 306.43C244.811 319.95 253.261 331 264.441 339.58C275.881 348.16 290.051 352.45 306.951 352.45C321.511 352.45 333.081 350.11 341.661 345.43C350.241 340.75 356.611 335.42 360.771 329.44C365.191 323.46 368.051 318.13 369.351 313.45C370.911 308.77 371.691 306.43 371.691 306.43H438.381C438.381 306.43 437.861 309.03 436.821 314.23C436.041 319.17 434.221 325.8 431.361 334.12C428.501 342.18 424.081 350.76 418.101 359.86C412.381 368.7 404.581 377.28 394.701 385.6C385.081 393.66 372.991 400.29 358.431 405.49C344.131 410.43 326.711 412.9 306.171 412.9ZM605.972 409V120.4H720.242C743.902 120.4 764.702 124.56 782.642 132.88C800.582 140.94 815.402 151.86 827.102 165.64C839.062 179.42 848.032 194.89 854.012 212.05C859.992 229.21 862.982 246.76 862.982 264.7C862.982 282.64 859.992 300.19 854.012 317.35C848.032 334.51 839.062 349.98 827.102 363.76C815.402 377.54 800.582 388.59 782.642 396.91C764.702 404.97 743.902 409 720.242 409H605.972ZM717.122 179.68H673.442V348.94H717.122C735.062 348.94 749.752 344.78 761.192 336.46C772.892 328.14 781.472 317.61 786.932 304.87C792.392 291.87 795.122 278.22 795.122 263.92C795.122 250.14 792.392 236.75 786.932 223.75C781.472 210.75 772.892 200.22 761.192 192.16C749.752 183.84 735.062 179.68 717.122 179.68Z" fill="#28262B"/>
</svg>
